<svg width="128" height="128" viewBox="0 0 128 128" fill="none" xmlns="http://www.w3.org/2000/svg">
<rect x="0.5" y="0.5" width="127" height="127" fill="white"/>
<path d="M16.0312 78V55.25H24C26.7604 55.25 28.8542 55.7812 30.2812 56.8438C31.7083 57.8958 32.4219 59.4427 32.4219 61.4844C32.4219 62.599 32.1354 63.5833 31.5625 64.4375C30.9896 65.2812 30.1927 65.901 29.1719 66.2969C30.3385 66.5885 31.2552 67.1771 31.9219 68.0625C32.599 68.9479 32.9375 70.0312 32.9375 71.3125C32.9375 73.5 32.2396 75.1562 30.8438 76.2812C29.4479 77.4062 27.4583 77.9792 24.875 78H16.0312ZM20.7188 68.0938V74.2344H24.7344C25.8385 74.2344 26.6979 73.974 27.3125 73.4531C27.9375 72.9219 28.25 72.1927 28.25 71.2656C28.25 69.1823 27.1719 68.125 25.0156 68.0938H20.7188ZM20.7188 64.7812H24.1875C26.5521 64.7396 27.7344 63.7969 27.7344 61.9531C27.7344 60.9219 27.4323 60.1823 26.8281 59.7344C26.2344 59.276 25.2917 59.0469 24 59.0469H20.7188V64.7812ZM45.9688 78C45.7604 77.5938 45.6094 77.0885 45.5156 76.4844C44.4219 77.7031 43 78.3125 41.25 78.3125C39.5938 78.3125 38.2188 77.8333 37.125 76.875C36.0417 75.9167 35.5 74.7083 35.5 73.25C35.5 71.4583 36.1615 70.0833 37.4844 69.125C38.8177 68.1667 40.7396 67.6823 43.25 67.6719H45.3281V66.7031C45.3281 65.9219 45.125 65.2969 44.7188 64.8281C44.3229 64.3594 43.6927 64.125 42.8281 64.125C42.0677 64.125 41.4688 64.3073 41.0312 64.6719C40.6042 65.0365 40.3906 65.5365 40.3906 66.1719H35.875C35.875 65.1927 36.1771 64.2865 36.7812 63.4531C37.3854 62.6198 38.2396 61.9688 39.3438 61.5C40.4479 61.0208 41.6875 60.7812 43.0625 60.7812C45.1458 60.7812 46.7969 61.3073 48.0156 62.3594C49.2448 63.401 49.8594 64.8698 49.8594 66.7656V74.0938C49.8698 75.6979 50.0938 76.9115 50.5312 77.7344V78H45.9688ZM42.2344 74.8594C42.901 74.8594 43.5156 74.7135 44.0781 74.4219C44.6406 74.1198 45.0573 73.7188 45.3281 73.2188V70.3125H43.6406C41.3802 70.3125 40.1771 71.0938 40.0312 72.6562L40.0156 72.9219C40.0156 73.4844 40.2135 73.9479 40.6094 74.3125C41.0052 74.6771 41.5469 74.8594 42.2344 74.8594ZM62.8281 65.3281C62.2135 65.2448 61.6719 65.2031 61.2031 65.2031C59.4948 65.2031 58.375 65.7812 57.8438 66.9375V78H53.3281V61.0938H57.5938L57.7188 63.1094C58.625 61.5573 59.8802 60.7812 61.4844 60.7812C61.9844 60.7812 62.4531 60.849 62.8906 60.9844L62.8281 65.3281ZM74.5156 65.3281C73.901 65.2448 73.3594 65.2031 72.8906 65.2031C71.1823 65.2031 70.0625 65.7812 69.5312 66.9375V78H65.0156V61.0938H69.2812L69.4062 63.1094C70.3125 61.5573 71.5677 60.7812 73.1719 60.7812C73.6719 60.7812 74.1406 60.849 74.5781 60.9844L74.5156 65.3281ZM81.4688 78H76.9375V61.0938H81.4688V78ZM76.6719 56.7188C76.6719 56.0417 76.8958 55.4844 77.3438 55.0469C77.8021 54.6094 78.4219 54.3906 79.2031 54.3906C79.974 54.3906 80.5885 54.6094 81.0469 55.0469C81.5052 55.4844 81.7344 56.0417 81.7344 56.7188C81.7344 57.4062 81.5 57.9688 81.0312 58.4062C80.5729 58.8438 79.9635 59.0625 79.2031 59.0625C78.4427 59.0625 77.8281 58.8438 77.3594 58.4062C76.901 57.9688 76.6719 57.4062 76.6719 56.7188ZM92.9844 78.3125C90.5052 78.3125 88.4844 77.5521 86.9219 76.0312C85.3698 74.5104 84.5938 72.4844 84.5938 69.9531V69.5156C84.5938 67.8177 84.9219 66.3021 85.5781 64.9688C86.2344 63.625 87.1615 62.5938 88.3594 61.875C89.5677 61.1458 90.9427 60.7812 92.4844 60.7812C94.7969 60.7812 96.6146 61.5104 97.9375 62.9688C99.2708 64.4271 99.9375 66.4948 99.9375 69.1719V71.0156H89.1719C89.3177 72.1198 89.7552 73.0052 90.4844 73.6719C91.224 74.3385 92.1562 74.6719 93.2812 74.6719C95.0208 74.6719 96.3802 74.0417 97.3594 72.7812L99.5781 75.2656C98.901 76.224 97.9844 76.974 96.8281 77.5156C95.6719 78.0469 94.3906 78.3125 92.9844 78.3125ZM92.4688 64.4375C91.5729 64.4375 90.8438 64.7396 90.2812 65.3438C89.7292 65.9479 89.375 66.8125 89.2188 67.9375H95.5V67.5781C95.4792 66.5781 95.2083 65.8073 94.6875 65.2656C94.1667 64.7135 93.4271 64.4375 92.4688 64.4375ZM112.016 65.3281C111.401 65.2448 110.859 65.2031 110.391 65.2031C108.682 65.2031 107.562 65.7812 107.031 66.9375V78H102.516V61.0938H106.781L106.906 63.1094C107.812 61.5573 109.068 60.7812 110.672 60.7812C111.172 60.7812 111.641 60.849 112.078 60.9844L112.016 65.3281Z" fill="#001A23"/>
<rect x="0.5" y="0.5" width="127" height="127" stroke="#31493C"/>
</svg>
